# xmcd CD database file
#
# Track frame offsets:
#	150
#	18997
#	38833
#	69689
#	91967
#	119532
#	140344
#	156393
#	174282
#	195529
#	208689
#	228349
#	244000
#	269082
#	286732
#
# Disc length: 4151 seconds
#
# Revision: 1
# Processed by: cddbd v1.5.2PL0 Copyright (c) Steve Scherf et al.
# Submitted via: CDex 1.70beta2
#
DISCID=d510350f
DTITLE=Сергей Мазаев - Избранное
DYEAR=2009
DGENRE=Pop
TTITLE0=Запретный Плод
TTITLE1=Я Люблю Тебя До Слез
TTITLE2=I'm going
TTITLE3=Что Так Сердце Растревожено
TTITLE4=Ноктюрн
TTITLE5=Путники в Ночи (''Strangers in the night'')
TTITLE6=Я тебя Никому Не Отдам
TTITLE7=Воспоминание
TTITLE8=Новый Год (''Antonio's song (The Rainbow)'')
TTITLE9=Fly me to the moon
TTITLE10=Satin doll
TTITLE11=Beautiful life
TTITLE12=Падай На Кровать
TTITLE13=Симона
TTITLE14=Проститься
EXTD=YEAR: 2009
EXTT0=
EXTT1=
EXTT2=
EXTT3=
EXTT4=
EXTT5=
EXTT6=
EXTT7=
EXTT8=
EXTT9=
EXTT10=
EXTT11=
EXTT12=
EXTT13=
EXTT14=
PLAYORDER=
